<svg xmlns="http://www.w3.org/2000/svg" xmlns:xlink='http://www.w3.org/1999/xlink' class="W_cH" id="e7nc2gziiebd1" viewBox="0 0 400 400" shape-rendering="geometricPrecision" text-rendering="geometricPrecision"><defs><linearGradient id="e7nc2gziiebd5-fill" x1="116.340000" y1="130.890000" x2="212.110000" y2="290.500000" spreadMethod="pad" gradientUnits="userSpaceOnUse"><stop id="e7nc2gziiebd5-fill-0" offset="0%" stop-color="rgb(52,4,114)"></stop><stop id="e7nc2gziiebd5-fill-1" offset="100%" stop-color="rgb(113,31,192)"></stop></linearGradient><linearGradient id="e7nc2gziiebd6-stroke" x1="145.160000" y1="267.290000" x2="208.380000" y2="204.060000" spreadMethod="pad" gradientUnits="userSpaceOnUse"><stop id="e7nc2gziiebd6-stroke-0" offset="0%" stop-color="rgb(188,255,0)"></stop><stop id="e7nc2gziiebd6-stroke-1" offset="17%" stop-color="rgb(153,255,53)"></stop><stop id="e7nc2gziiebd6-stroke-2" offset="39%" stop-color="rgb(112,255,115)"></stop><stop id="e7nc2gziiebd6-stroke-3" offset="59%" stop-color="rgb(80,255,164)"></stop><stop id="e7nc2gziiebd6-stroke-4" offset="76%" stop-color="rgb(56,255,199)"></stop><stop id="e7nc2gziiebd6-stroke-5" offset="91%" stop-color="rgb(42,255,220)"></stop><stop id="e7nc2gziiebd6-stroke-6" offset="100%" stop-color="rgb(37,255,228)"></stop></linearGradient></defs><path id="e7nc2gziiebd3" d="M 128.4131375033846 195.05692552423076 C 138.8331375033846 174.14692552423077 169.33866080246153 131.62158098292306 224.50866080246155 194.12158098292306 C 241.5130994415385 213.81090707799999 269.3143847923077 239.78370589615386 235.5243847923077 275.33370589615384 C 222.4643847923077 289.07370589615385 200.5670425003077 307.7212955902308 169.26168168161539 297.11895196346154 C 114.96402564815385 279.31102243000004 106.75824970761538 238.6873992266923 128.4131375033846 195.05692552423076 Z" transform="matrix(1.17863217218376 0 0 1.17863217218376 -76.09858749228431 -50.30858685346919)" fill="none" stroke="rgb(84,154,255)" stroke-width="2" stroke-linecap="round" stroke-linejoin="round" stroke-dasharray="10" opacity="1" stroke-dashoffset="139.387024"></path><g id="e7nc2gziiebd4" transform="matrix(1.41931981037441 0 0 1.41931981037441 -77.14209007285041 -96.77911268792053)" opacity="1"><path id="e7nc2gziiebd5" d="M 128.780898962 194.38833598458334 C 139.200898962 173.47833598458334 169.964382536 131.6317127315 225.134382536 194.1317127315 C 242.66585772833335 214.45348266783333 269.12558352499997 240.30234805416666 235.335583525 275.85234805416667 C 222.275583525 289.5923480541667 199.94762937533335 308.19807022275 168.31098848841665 297.11386462708333 C 114.49519445216667 278.7036076325 107.02060384991667 238.24468249558333 128.780898962 194.38833598458334 Z" transform="matrix(1 0 0 1 -39.66005600000000 -9.06515600000000)" fill="url(#e7nc2gziiebd5-fill)" stroke="none" stroke-width="1"></path><path id="e7nc2gziiebd6" d="M 163.73257497035647 245.8688498761759 C 162.88433212747412 245.11141344502818 176.31713143798444 208.78010848869903 177.63193486625983 210.53380600910845 C 179.02900746403606 212.1166328800162 209.450954254172 247.65567399242315 208.56804303128968 250.5580828426003 C 199.05422793323464 253.01133351791682 180.3998890229779 253.1605885225511 161.63342460212436 251.4345476852586" transform="matrix(0.97026238777649 -0.24205556978982 0.24205556978982 0.97026238777649 -91.32004400817445 41.02296554540752)" fill="none" stroke="url(#e7nc2gziiebd6-stroke)" stroke-width="20" stroke-linecap="round" stroke-linejoin="round" stroke-miterlimit="10"></path></g><g id="e7nc2gziiebd7" transform="matrix(0.84790870134783 0 0 0.84790870134783 21.48747009156615 33.56019237992746)"><g id="e7nc2gziiebd8" transform="matrix(0.91174434386271 0 0 0.86566585785818 -12.91476445067329 -19.94074331096604)"><path id="e7nc2gziiebd9" d="M108.220000,402.380000C140.150000,391.060000,159,375,222,401C308.560000,436.720000,242,341.650000,249,268.330000C256,195.010000,312,159.870000,256,146.940000C200,134.010000,68,167,66,196C64,225,135.260000,259.320000,148.630000,212.660000C162,166,136,128.810000,109,123.410000C82,118.010000,33.530000,158.500000,72,254C101,326,41.140000,426.170000,108.220000,402.380000Z" opacity="0" fill="none" stroke="rgb(231,255,121)" stroke-width="0.500000" stroke-miterlimit="20" stroke-dashoffset="100" stroke-dasharray="10"></path></g><g id="e7nc2gziiebd10" transform="matrix(0.92920083846914 -0.36957516392237 0.36957516392237 0.92920083846914 77.25013693430930 100.39135280436787)" opacity="0"><rect id="e7nc2gziiebd11" width="16.960000" height="5.770000" rx="0" ry="0" transform="matrix(1 0 0 1 64.71994400000000 224.10484399999999)" fill="rgb(231,255,121)" stroke="none" stroke-width="1"></rect><path id="e7nc2gziiebd12" d="M100.690000,219.330000C104,223.170000,105,231,105,231L120.700000,231C120.700000,231,121.700000,223.170000,125.030000,219.330000L112.860000,201Z" transform="matrix(1 0 0 1 -39.66005600000000 -9.06515600000000)" fill="rgb(231,255,121)" stroke="none" stroke-width="1"></path><circle id="e7nc2gziiebd13" r="3.250000" transform="matrix(1 0 0 1 73.19994400000000 213.56484399999999)" fill="rgb(2,8,23)" stroke="none" stroke-width="1"></circle><polygon id="e7nc2gziiebd14" points="113.740000,221.250000 111.990000,221.250000 111.990000,202.320000 112.860000,201 113.740000,202.320000 113.740000,221.250000" transform="matrix(1 0 0 1 -39.66005600000000 -9.06515600000000)" fill="rgb(2,8,23)" stroke="none" stroke-width="1"></polygon></g></g><g id="e7nc2gziiebd15" transform="matrix(0.57866609668902 0 0 0.57866609668902 272.03509855074151 102.02893975470896)"><g id="e7nc2gziiebd16" clip-path="url(#e7nc2gziiebd19)"><clipPath id="e7nc2gziiebd19"><rect id="e7nc2gziiebd20" width="196.810000" height="445.190000" rx="0" ry="0" transform="matrix(1 0 0 1 -17.62380768175636 -17.62380768175643)" fill="none" stroke="none" stroke-width="1"></rect></clipPath></g></g><path id="e7nc2gziiebd21" d="M36.400520,39.041902C-6.893257,44.204738,0.513910,61.867067,31.711620,63.225707C106.672389,65.942989,82.559734,35.781164,20.249867,46.378562" transform="matrix(0.99779439777808 -0.06638026636491 0.06638026636491 0.99779439777808 234.59524779285033 49.93729542934162)" fill="none" stroke="rgb(0,55,255)" stroke-width="4" stroke-linecap="round" stroke-linejoin="round" stroke-dashoffset="0" stroke-dasharray="175.560000"></path><path id="e7nc2gziiebd22" d="M36.400520,39.041902C-6.893257,44.204738,0.513910,61.867067,31.711620,63.225707C106.672389,65.942989,82.559734,35.781164,20.249867,46.378562" transform="matrix(0.99779439777808 -0.06638026636491 0.06638026636491 0.99779439777808 243.98897579285034 236.95788642934153)" fill="none" stroke="rgb(0,55,255)" stroke-width="4" stroke-linecap="round" stroke-linejoin="round" stroke-dashoffset="175.560000" stroke-dasharray="175.560000"></path><path id="e7nc2gziiebd23" d="M36.400520,39.041902C-6.893257,44.204738,0.513910,61.867067,31.711620,63.225707C106.672389,65.942989,82.559734,35.781164,20.249867,46.378562" transform="matrix(0.99779439777808 -0.06638026636491 0.06638026636491 0.99779439777808 234.23434979285037 68.69058842934152)" fill="none" stroke="rgb(0,55,255)" stroke-width="4" stroke-linecap="round" stroke-linejoin="round" stroke-dashoffset="175.560000" stroke-dasharray="175.560000"></path><circle id="e7nc2gziiebd24" r="12.518761" transform="matrix(0.54399857825292 -0.44310766130953 0.45710092114515 0.56117795500575 220.45056299999999 138.63451400000000)" fill="none" stroke="rgb(255,96,96)" stroke-width="4" stroke-dashoffset="235.980000" stroke-dasharray="78.660000"></circle><g id="e7nc2gziiebd25" transform="matrix(0.19609060185471 -0.13910772165487 0.12897850683947 0.18181214336342 167.57521956529104 107.71992691457214)"><line id="e7nc2gziiebd26" x1="50" y1="22.610000" x2="50" y2="33" transform="matrix(1 0 0 -3.27360460961094 -0.00000000000002 110.69731432742063)" fill="none" stroke="rgb(231,228,92)" stroke-width="12" stroke-miterlimit="10" stroke-dashoffset="10.390000" stroke-dasharray="10.390000"></line><line id="e7nc2gziiebd27" x1="22.610000" y1="50" x2="33" y2="50" transform="matrix(-2.96869836167548 0 0 -1.07737383207804 104.25196156181835 103.86869160390165)" fill="none" stroke="rgb(231,228,92)" stroke-width="12" stroke-miterlimit="10" stroke-dashoffset="10.390000" stroke-dasharray="10.390000"></line><line id="e7nc2gziiebd28" x1="50" y1="77.390000" x2="50" y2="67" transform="matrix(1 0 0 -3.27360460961094 -0.00000000000002 316.66314663367302)" fill="none" stroke="rgb(231,228,92)" stroke-width="12" stroke-miterlimit="10" stroke-dashoffset="10.390000" stroke-dasharray="10.390000"></line><line id="e7nc2gziiebd29" x1="77.390000" y1="50" x2="67" y2="50" transform="matrix(-2.96869836167548 0 0 -1.07737383207804 292.61787460572862 103.86869160390165)" fill="none" stroke="rgb(231,228,92)" stroke-width="12" stroke-miterlimit="10" stroke-dashoffset="10.390000" stroke-dasharray="10.390000"></line></g><polyline id="e7nc2gziiebd30" points="12.790000,40 37.590000,60 62.400000,40 87.210000,60" transform="matrix(0.68681146235606 -0.33145332989898 0.33145332989898 0.68681146235606 34.17876338724811 286.31744037714589)" fill="none" stroke="rgb(255,255,255)" stroke-width="6" stroke-linejoin="round" stroke-dashoffset="286.770000" stroke-dasharray="95.590000"></polyline><polyline id="e7nc2gziiebd31" points="12.790000,40 37.590000,60 62.400000,40 87.210000,60" transform="matrix(0.68681146235606 -0.33145332989898 0.33145332989898 0.68681146235606 40.07966438724807 306.97059337714586)" fill="none" stroke="rgb(255,255,255)" stroke-width="6" stroke-linejoin="round" stroke-dashoffset="286.770000" stroke-dasharray="95.590000"></polyline><path id="e7nc2gziiebd32" d="M36.400520,39.041902C-6.893257,44.204738,0.513910,61.867067,31.711620,63.225707C106.672389,65.942989,82.559734,35.781164,20.249867,46.378562" transform="matrix(0.99779439777808 -0.06638026636491 0.06638026636491 0.99779439777808 243.28925979285032 254.15049542934153)" fill="none" stroke="rgb(0,55,255)" stroke-width="4" stroke-linecap="round" stroke-linejoin="round" stroke-dashoffset="175.560000" stroke-dasharray="175.560000"></path><path id="e7nc2gziiebd33" d="M -27.5 0 C -27.5 -15.187830620346817 -15.187830620346817 -27.5 0 -27.5 C 15.187830620346817 -27.5 27.5 -15.187830620346817 27.5 0 C 27.5 15.187830620346817 15.187830620346817 27.5 0 27.5 C -15.187830620346817 27.5 -27.5 15.187830620346817 -27.5 0 Z" transform="matrix(1 0 0 1 186.76836899999998 142.51977999999997)" fill="rgb(137,157,255)" stroke="none" stroke-width="1"></path></svg>